<svg xmlns="http://www.w3.org/2000/svg" viewBox="0 0 200 200" width="200" height="200">
  <defs>
    <linearGradient id="hornGradient" x1="0%" y1="0%" x2="0%" y2="100%">
      <stop offset="0%" style="stop-color:#4a90e2;stop-opacity:1" />
      <stop offset="100%" style="stop-color:#2c5aa0;stop-opacity:1" />
    </linearGradient>
    <linearGradient id="waveGradient" x1="0%" y1="0%" x2="100%" y2="0%">
      <stop offset="0%" style="stop-color:#f39c12;stop-opacity:0.8" />
      <stop offset="100%" style="stop-color:#e74c3c;stop-opacity:0.8" />
    </linearGradient>
  </defs>

  <!-- Signal waves -->
  <path d="M 20 100 Q 40 80, 60 100" stroke="url(#waveGradient)" stroke-width="3" fill="none" opacity="0.6"/>
  <path d="M 15 100 Q 40 70, 65 100" stroke="url(#waveGradient)" stroke-width="3" fill="none" opacity="0.4"/>
  <path d="M 10 100 Q 40 60, 70 100" stroke="url(#waveGradient)" stroke-width="3" fill="none" opacity="0.3"/>

  <!-- Feedhorn body (truncated cone) -->
  <path d="M 80 100 L 120 60 L 180 60 L 180 140 L 120 140 L 80 100 Z"
        fill="url(#hornGradient)" stroke="#1a3d70" stroke-width="2"/>

  <!-- Feedhorn opening (ellipse) -->
  <ellipse cx="180" cy="100" rx="3" ry="40" fill="#1a3d70"/>

  <!-- Feedhorn throat (small opening) -->
  <ellipse cx="80" cy="100" rx="2" ry="15" fill="#0d1f3d"/>

  <!-- Inner detail lines -->
  <line x1="95" y1="75" x2="180" y2="70" stroke="#1a3d70" stroke-width="1" opacity="0.3"/>
  <line x1="95" y1="100" x2="180" y2="100" stroke="#1a3d70" stroke-width="1" opacity="0.3"/>
  <line x1="95" y1="125" x2="180" y2="130" stroke="#1a3d70" stroke-width="1" opacity="0.3"/>

  <!-- Mounting bracket -->
  <rect x="115" y="95" width="10" height="10" fill="#34495e" stroke="#2c3e50" stroke-width="1"/>
  <circle cx="120" cy="100" r="2" fill="#7f8c8d"/>
</svg>
